<svg xmlns="http://www.w3.org/2000/svg" version="1.1" xmlns:xlink="http://www.w3.org/1999/xlink" xmlns:svgjs="http://svgjs.dev/svgjs" width="1000" height="1000" viewBox="0 0 1000 1000"><rect width="1000" height="1000" fill="#ffffff"></rect><g transform="matrix(0.7,0,0,0.7,149.57575757575756,403.3614833422403)"><svg viewBox="0 0 396 110" data-background-color="#ffffff" preserveAspectRatio="xMidYMid meet" height="277" width="1000" xmlns="http://www.w3.org/2000/svg" xmlns:xlink="http://www.w3.org/1999/xlink"><defs></defs><g id="tight-bounds" transform="matrix(1,0,0,1,0.2400000000000091,-0.17670535145143162)"><svg viewBox="0 0 395.52 110.35341070290286" height="110.35341070290286" width="395.52"><g><svg viewBox="0 0 395.52 110.35341070290286" height="110.35341070290286" width="395.52"><g><svg viewBox="0 0 395.52 110.35341070290286" height="110.35341070290286" width="395.52"><g><svg viewBox="0 0 395.52 110.35341070290286" height="110.35341070290286" width="395.52"><g><rect width="395.52" height="86.23757991526753" fill="none" stroke-width="9.018103199999999" stroke="#010c80" data-fill-palette-color="none" data-stroke-palette-color="tertiary"></rect><rect width="395.52" height="24.115830787635335" y="86.23757991526753" fill="#010c80" data-fill-palette-color="tertiary"></rect></g><g><svg viewBox="0 0 395.52 86.23757991526753" height="86.23757991526753" width="395.52"><g transform="matrix(1,0,0,1,23.607599999999998,23.607599999999998)"><svg width="348.3048" viewBox="0.6500000357627869 -35 318.6300048828125 35.70000076293945" height="39.022379915267535" data-palette-color="#010c80"><path d="M36.85-6.35L41-6.35 41 0 23.5 0 23.5-6.35 28.55-6.35 26.65-11.35 14.1-11.35 12.25-6.35 17.8-6.35 17.8 0 0.65 0 0.65-6.35 4.7-6.35 13.9-28 10.35-28 10.35-34.3 31.1-34.3 31.1-28 27.6-28 36.85-6.35ZM16.2-16.95L24.55-16.95 20.4-28 20.35-28 16.2-16.95ZM78.6-34.3L78.6-27.95 73.4-27.95 59.9 0.65 55.65 0.65 42.25-27.95 37.05-27.95 37.05-34.3 55.1-34.3 55.1-27.95 50.55-27.95 58.3-10 65.75-27.95 60.7-27.95 60.7-34.3 78.6-34.3ZM115.65-21.55L108.6-21.55 108.6-27.95 93.75-27.95 93.75-19.6 99-19.6 99-23.55 104.95-23.55 104.95-9.95 99-9.95 99-13.9 93.75-13.9 93.75-6.35 108.6-6.35 108.6-12.75 115.65-12.75 115.65 0 80.25 0 80.25-6.35 85.8-6.35 85.8-27.95 80.25-27.95 80.25-34.3 115.65-34.3 115.65-21.55ZM165.09-34.3L165.09-27.95 159.79-27.95 159.79 0.3 155.44 0.35 133.79-23.5 133.79-6.35 139.39-6.35 139.39 0 120.59 0 120.59-6.35 126.19-6.35 126.19-27.95 120.59-27.95 120.59-34.3 133.79-34.3 152.39-13.25 152.39-27.95 146.79-27.95 146.79-34.3 165.09-34.3ZM186.94-28.65Q183.89-28.65 181.47-27.3 179.04-25.95 177.62-23.35 176.19-20.75 176.19-17.15L176.19-17.15Q176.19-13.85 177.57-11.28 178.94-8.7 181.39-7.28 183.84-5.85 187.04-5.85L187.04-5.85Q189.89-5.85 191.92-6.45 193.94-7.05 195.69-8.15L195.69-8.15 195.69-12.65 186.54-12.65 186.54-18.6 202.94-18.6 202.94-4.65Q200.24-2.3 196.04-0.8 191.84 0.7 187.04 0.7L187.04 0.7Q181.14 0.7 176.77-1.65 172.39-4 170.07-8.05 167.74-12.1 167.74-17.15L167.74-17.15Q167.74-22.05 170.02-26.15 172.29-30.25 176.22-32.63 180.14-35 184.84-35L184.84-35Q188.14-35 190.92-34.02 193.69-33.05 195.84-31.2L195.84-31.2 195.84-34.3 202.94-34.3 202.94-22.9 197.64-22.55Q196.09-25.05 193.32-26.85 190.54-28.65 186.94-28.65L186.94-28.65ZM242.74-21.55L235.69-21.55 235.69-27.95 220.84-27.95 220.84-19.6 226.09-19.6 226.09-23.55 232.04-23.55 232.04-9.95 226.09-9.95 226.09-13.9 220.84-13.9 220.84-6.35 235.69-6.35 235.69-12.75 242.74-12.75 242.74 0 207.34 0 207.34-6.35 212.89-6.35 212.89-27.95 207.34-27.95 207.34-34.3 242.74-34.3 242.74-21.55ZM283.54-8.15L287.24-2.9Q285.79-1.3 284.01-0.3 282.24 0.7 279.59 0.7L279.59 0.7Q274.79 0.7 271.61-2.63 268.44-5.95 266.84-13L266.84-13 266.69-13.65 261.39-13.65 261.39-6.3 266.74-6.3 266.74 0 247.69 0 247.69-6.35 253.29-6.35 253.29-27.95 247.69-27.95 247.69-34.3 268.24-34.3Q274.44-34.3 278.19-31.63 281.94-28.95 281.94-24.05L281.94-24.05Q281.94-20.15 279.81-17.63 277.69-15.1 273.79-14.15L273.79-14.15 274.04-13.4Q275.24-9.65 276.76-8.18 278.29-6.7 280.09-6.7L280.09-6.7Q281.19-6.7 281.99-7.08 282.79-7.45 283.54-8.15L283.54-8.15ZM261.39-27.95L261.39-19.6 268.49-19.6Q270.59-19.6 272.26-20.65 273.94-21.7 273.94-24.05L273.94-24.05Q273.94-26.15 272.31-27.05 270.69-27.95 268.49-27.95L268.49-27.95 261.39-27.95ZM305.38-20.75Q311.98-18.85 315.63-16.2 319.28-13.55 319.28-9.15L319.28-9.15Q319.28-6.1 317.73-3.9 316.18-1.7 313.48-0.53 310.78 0.65 307.38 0.65L307.38 0.65Q304.18 0.65 301.23-0.6 298.28-1.85 295.38-4.15L295.38-4.15 295.38-0.05 288.33-0.05 288.33-12.55 293.33-12.8Q295.93-9.65 299.83-7.68 303.73-5.7 306.83-5.7L306.83-5.7Q308.68-5.7 309.76-6.35 310.83-7 310.83-8.3L310.83-8.3Q310.83-9.85 308.38-11.15 305.93-12.45 299.88-14.1L299.88-14.1Q293.88-15.75 291.13-18.43 288.38-21.1 288.38-25.15L288.38-25.15Q288.38-28.1 290.03-30.33 291.68-32.55 294.38-33.77 297.08-35 300.13-35L300.13-35Q306.28-35 310.43-31.15L310.43-31.15 310.43-34.3 317.48-34.3 317.48-22.15 312.73-21.9Q311.08-25.1 308.16-26.88 305.23-28.65 302.18-28.65L302.18-28.65Q299.78-28.65 298.31-27.8 296.83-26.95 296.83-25.5L296.83-25.5Q296.83-24.1 298.68-23.08 300.53-22.05 305.38-20.75L305.38-20.75Z" opacity="1" transform="matrix(1,0,0,1,0,0)" fill="#000000" class="undefined-text-0" data-fill-palette-color="primary" id="text-0"></path></svg></g></svg></g></svg></g></svg></g></svg></g></svg><rect width="395.52" height="110.35341070290286" fill="none" stroke="none" visibility="hidden"></rect></g></svg></g></svg>